<!-- Generated by IcoMoon.io -->
<svg version="1.1" xmlns="http://www.w3.org/2000/svg" width="32" height="32" viewBox="0 0 32 32">
<title>letter-icon</title>
<path fill="#757575" d="M29 4h-26c-1.654 0-3 1.256-3 2.801v16.803c0 1.544 1.346 2.801 3 2.801h26c1.654 0 3-1.256 3-2.801v-16.803c0-1.544-1.346-2.801-3-2.801v0zM29 5.867c0.136 0 0.265 0.026 0.383 0.072l-13.383 10.828-13.383-10.828c0.118-0.046 0.247-0.072 0.383-0.072h26zM29 24.537h-26c-0.552 0-1-0.418-1-0.934v-15.692l13.345 10.796c0.188 0.152 0.422 0.228 0.655 0.228s0.467-0.076 0.655-0.228l13.345-10.796v15.692c0 0.515-0.448 0.934-1 0.934v0z"></path>
<path fill="#000" d="M29.383 5.939l1.345 1.662 2.865-2.318-3.435-1.336-0.775 1.992zM16 16.767l-1.344 1.662 1.344 1.088 1.344-1.088-1.344-1.662zM2.617 5.939l-0.774-1.993-3.437 1.335 2.867 2.319 1.344-1.662zM2 7.912l1.344-1.662-3.482-2.817v4.479h2.138zM15.345 18.708l-1.344 1.662 0.002 0.001 1.343-1.663zM16.655 18.708l1.343 1.663 0.001-0.001-1.344-1.662zM30 7.912h2.138v-4.479l-3.482 2.817 1.344 1.662zM30 23.603v0zM29 1.862h-26v4.275h26v-4.275zM3 1.862c-2.694 0-5.138 2.077-5.138 4.938h4.275c0-0.228 0.248-0.663 0.862-0.663v-4.275zM-2.138 6.801v16.803h4.275v-16.803h-4.275zM-2.138 23.603c0 2.861 2.444 4.938 5.138 4.938v-4.275c-0.615 0-0.863-0.435-0.863-0.663h-4.275zM3 28.541h26v-4.275h-26v4.275zM29 28.541c2.694 0 5.138-2.077 5.138-4.938h-4.275c0 0.228-0.248 0.663-0.862 0.663v4.275zM34.138 23.603v-16.803h-4.275v16.803h4.275zM34.138 6.801c0-2.861-2.444-4.938-5.138-4.938v4.275c0.615 0 0.862 0.435 0.862 0.663h4.275zM29 8.005c-0.142 0-0.275-0.028-0.392-0.073l1.55-3.984c-0.353-0.137-0.744-0.218-1.158-0.218v4.275zM28.039 4.277l-13.383 10.828 2.689 3.323 13.383-10.828-2.689-3.324zM17.344 15.105l-13.383-10.828-2.689 3.324 13.383 10.828 2.689-3.323zM3.391 7.932c-0.115 0.045-0.248 0.073-0.391 0.073v-4.275c-0.415 0-0.806 0.081-1.157 0.217l1.548 3.985zM3 8.005h26v-4.275h-26v4.275zM29 22.399h-26v4.275h26v-4.275zM3 22.399c0.488 0 1.138 0.402 1.138 1.204h-4.275c0 1.832 1.546 3.071 3.138 3.071v-4.275zM4.138 23.603v-15.692h-4.275v15.692h4.275zM0.656 9.574l13.345 10.796 2.689-3.324-13.345-10.796-2.689 3.324zM14.002 20.371c0.593 0.479 1.308 0.702 1.998 0.702v-4.275c0.223 0 0.472 0.072 0.688 0.247l-2.686 3.326zM16 21.073c0.69 0 1.405-0.223 1.998-0.703l-2.686-3.326c0.216-0.175 0.465-0.247 0.688-0.247v4.275zM18 20.37l13.345-10.796-2.689-3.324-13.345 10.796 2.689 3.324zM27.862 7.912v15.692h4.275v-15.692h-4.275zM27.862 23.603c0-0.801 0.65-1.204 1.138-1.204v4.275c1.591 0 3.137-1.239 3.138-3.071l-4.275-0.001z"></path>
</svg>
