<svg aria-hidden="true" style="position: absolute; width: 0; height: 0; overflow: hidden;" version="1.1" xmlns="http://www.w3.org/2000/svg" xmlns:xlink="http://www.w3.org/1999/xlink">
<defs>
<symbol id="icon-letter-icon" viewBox="0 0 43 32">
<path fill="#757575" style="fill: var(--color1, #757575)" d="M38.667 0h-34.667c-2.206 0-4 1.675-4 3.734v22.404c0 2.059 1.794 3.734 4 3.734h34.667c2.206 0 4-1.675 4-3.734v-22.404c0-2.059-1.794-3.734-4-3.734v0zM38.667 2.489c0.181 0 0.353 0.035 0.511 0.096l-17.844 14.437-17.844-14.437c0.158-0.061 0.33-0.096 0.511-0.096h34.667zM38.667 27.383h-34.667c-0.736 0-1.333-0.558-1.333-1.245v-20.922l17.793 14.395c0.251 0.203 0.563 0.304 0.874 0.304s0.622-0.101 0.874-0.304l17.793-14.395v20.922c0 0.687-0.598 1.245-1.333 1.245v0z"></path>
<path fill="#000" style="fill: var(--color2, #000)" d="M39.178 2.586l1.793 2.216 3.82-3.091-4.58-1.781-1.033 2.656zM21.333 17.023l-1.793 2.216 1.793 1.45 1.793-1.45-1.793-2.216zM3.489 2.586l-1.032-2.657-4.583 1.78 3.822 3.092 1.793-2.216zM2.667 5.216l1.793-2.216-4.643-3.756v5.972h2.85zM20.46 19.611l-1.793 2.216 0.002 0.002 1.79-2.217zM22.207 19.611l1.791 2.217 0.002-0.001-1.793-2.216zM40 5.216h2.85v-5.972l-4.643 3.756 1.793 2.216zM40 26.138v0zM38.667-2.85h-34.667v5.7h34.667v-5.7zM4-2.85c-3.592 0-6.85 2.769-6.85 6.584h5.7c0-0.304 0.33-0.884 1.15-0.884v-5.7zM-2.85 3.734v22.404h5.7v-22.404h-5.7zM-2.85 26.138c0 3.815 3.258 6.584 6.85 6.584v-5.7c-0.82 0-1.15-0.58-1.15-0.884h-5.7zM4 32.722h34.667v-5.7h-34.667v5.7zM38.667 32.722c3.592 0 6.85-2.769 6.85-6.584h-5.7c0 0.303-0.33 0.884-1.15 0.884v5.7zM45.517 26.138v-22.404h-5.7v22.404h5.7zM45.517 3.734c0-3.815-3.258-6.584-6.85-6.584v5.7c0.82 0 1.15 0.58 1.15 0.884h5.7zM38.667 5.339c-0.19 0-0.367-0.037-0.522-0.097l2.066-5.312c-0.47-0.183-0.992-0.29-1.544-0.29v5.7zM37.385 0.37l-17.844 14.437 3.585 4.431 17.844-14.437-3.585-4.431zM23.126 14.807l-17.844-14.437-3.585 4.431 17.844 14.437 3.585-4.431zM4.521 5.242c-0.154 0.060-0.33 0.097-0.521 0.097v-5.7c-0.553 0-1.074 0.108-1.543 0.29l2.064 5.313zM4 5.339h34.667v-5.7h-34.667v5.7zM38.667 24.532h-34.667v5.7h34.667v-5.7zM4 24.532c0.65 0 1.517 0.536 1.517 1.605h-5.7c0 2.442 2.062 4.095 4.183 4.095v-5.7zM5.517 26.138v-20.922h-5.7v20.922h5.7zM0.874 7.431l17.793 14.395 3.585-4.431-17.793-14.395-3.585 4.431zM18.669 21.828c0.791 0.638 1.744 0.936 2.664 0.936v-5.7c0.298 0 0.629 0.096 0.917 0.329l-3.581 4.435zM21.333 22.765c0.92 0 1.874-0.298 2.665-0.937l-3.582-4.434c0.288-0.233 0.62-0.329 0.917-0.329v5.7zM24 21.826l17.793-14.395-3.585-4.431-17.793 14.395 3.585 4.431zM37.15 5.216v20.922h5.7v-20.922h-5.7zM37.15 26.138c0-1.068 0.866-1.605 1.517-1.605v5.7c2.122 0 4.183-1.652 4.183-4.094l-5.7-0.001z"></path>
</symbol>
<symbol id="icon-phone-icon" viewBox="0 0 21 32">
<path fill="#757575" style="fill: var(--color1, #757575)" d="M18.133 0h-14.933c-1.765 0-3.2 1.34-3.2 2.987v25.889c0 1.647 1.435 2.987 3.2 2.987h14.933c1.765 0 3.2-1.34 3.2-2.987v-25.889c0-1.647-1.435-2.987-3.2-2.987zM3.2 1.991h14.933c0.589 0 1.067 0.446 1.067 0.996v20.91h-17.067v-20.91c0-0.549 0.478-0.996 1.067-0.996zM18.133 29.872h-14.933c-0.589 0-1.067-0.446-1.067-0.996v-2.987h17.067v2.987c0 0.55-0.478 0.996-1.067 0.996z"></path>
</symbol>
<symbol id="icon-samoletik-icon" viewBox="0 0 32 32">
<path fill="#fff" style="fill: var(--color3, #fff)" d="M32 0l-32 18 10.227 3.788 15.773-14.788-11.998 16.186 0.010 0.004-0.012-0.004v8.814l5.735-6.691 7.265 2.691 5-28z"></path>
</symbol>
</defs>
</svg>
